<?xml version="1.0" encoding="UTF-8"?>
<svg id="Capa_1" xmlns="http://www.w3.org/2000/svg" version="1.1" viewBox="0 0 362.16 102.24">
  <!-- Generator: Adobe Illustrator 29.5.1, SVG Export Plug-In . SVG Version: 2.1.0 Build 141)  -->
  <g>
    <rect x="32.72" y="8.6" width="6.96" height="6.96" transform="translate(2.06 29.13) rotate(-45)"/>
    <rect x="38.59" y=".82" width="3.95" height="3.95" transform="translate(9.91 29.5) rotate(-45)"/>
    <polygon points="81.1 61.64 81.14 61.67 40.57 102.24 0 61.67 .04 61.64 0 61.6 16.4 45.2 16.36 50.58 5.31 61.63 40.57 96.89 75.82 61.63 64.77 50.58 64.74 45.2 81.14 61.6 81.1 61.64"/>
    <polygon points="63.47 64.63 63.47 58.8 57.05 52.24 57.05 38.52 51.85 32.71 51.85 62.44 47.13 67.16 47.13 12.08 34 30.67 34 67.16 29.28 62.43 29.28 38.13 24.08 43.94 24.08 52.24 17.67 58.8 17.67 64.63 33.66 80.62 33.67 80.62 40.02 86.98 40.57 87.57 41.11 86.98 47.47 80.62 63.47 64.63"/>
    <polygon points="47.13 26.2 38.39 35.82 38.39 55.76 47.13 46.13 47.13 26.2"/>
    <polygon points="47.13 46.15 38.39 55.77 38.39 72.48 47.13 62.85 47.13 46.15"/>
    <polygon points="38.41 35.76 33.99 30.56 33.99 60.56 38.41 55.78 38.41 35.76"/>
  </g>
  <polygon points="214.37 51.39 201.59 62.62 164.43 62.62 164.43 51.39 214.37 51.39"/>
  <polygon points="201.86 72.62 214.37 83.85 164.43 83.85 164.43 72.62 201.86 72.62"/>
  <polygon points="214.37 30.16 201.59 41.39 164.43 41.39 164.43 30.16 214.37 30.16"/>
  <polygon points="346.28 30.75 292.63 84.41 308.51 84.41 362.16 30.75 346.28 30.75"/>
  <g>
    <polygon points="324.77 47.02 308.51 30.75 292.63 30.75 316.84 54.96 324.77 47.02"/>
    <polygon points="329.94 68.07 346.28 84.41 362.16 84.41 337.88 60.13 329.94 68.07"/>
  </g>
  <polygon points="268.24 30.16 267.81 30.16 251.94 30.16 233.98 30.16 233.98 41.39 245.21 41.39 245.21 41.39 263.16 41.39 271.59 49.81 271.59 64.36 263.33 72.62 251.91 72.62 251.91 72.62 233.98 72.62 233.98 83.85 252.1 83.85 267.98 83.85 268.31 83.85 282.82 69.34 282.82 69.01 282.82 53.14 282.82 45.16 282.82 44.74 268.24 30.16"/>
  <path d="M109.08,63.43h27.04l-.08.08v9.12h-42.52v11.23h11.79s.06,0,.09,0h41.88v-30.91h-25.92l-12.28,10.48h0Z"/>
  <path d="M124.74,41.39h7.8l14.74-11.23h-11.15s-.1,0-.15,0h-35.78c-.07,0-.15,0-.22.01h-6.45v11.22h31.21,0Z"/>
</svg>