<?xml version="1.0" encoding="UTF-8"?>
<svg xmlns="http://www.w3.org/2000/svg" version="1.1" xmlns:xlink="http://www.w3.org/1999/xlink" viewBox="0 0 1758.96 496.56">
  <defs>
    <style>
      .cls-1 {
        fill: #fc9228;
      }

      .cls-2 {
        fill: #303030;
      }

      .cls-3 {
        fill: #fa9416;
      }

      .cls-4 {
        fill: #f97813;
      }

      .cls-5 {
        fill: #fdac12;
      }

      .cls-6 {
        fill: url(#Degradado_sin_nombre_12);
      }
    </style>
    <linearGradient id="Degradado_sin_nombre_12" data-name="Degradado sin nombre 12" x1="197.03" y1="410.69" x2="197.03" y2="93.68" gradientUnits="userSpaceOnUse">
      <stop offset="0" stop-color="#c1272d"/>
      <stop offset="1" stop-color="#fa7b14"/>
    </linearGradient>
  </defs>
  <!-- Generator: Adobe Illustrator 28.7.7, SVG Export Plug-In . SVG Version: 1.2.0 Build 194)  -->
  <g>
    <g id="Capa_1">
      <g>
        <g>
          <rect class="cls-4" x="158.9" y="41.78" width="33.81" height="33.81" transform="translate(92.99 -107.13) rotate(45)"/>
          <rect class="cls-1" x="187.44" y="3.97" width="19.17" height="19.17" transform="translate(67.29 -135.35) rotate(45)"/>
          <polygon class="cls-2" points="393.87 299.35 394.06 299.53 197.03 496.56 0 299.53 .19 299.35 0 299.16 79.63 219.55 79.46 245.68 25.8 299.34 197.03 470.58 368.26 299.34 314.6 245.68 314.43 219.55 394.06 299.16 393.87 299.35"/>
          <polygon class="cls-6" points="308.24 313.88 308.24 285.59 277.08 253.71 277.08 187.09 251.82 158.88 251.82 303.25 228.91 326.16 228.91 58.68 165.15 148.94 165.15 326.16 142.22 303.22 142.22 185.21 116.97 213.41 116.97 253.73 85.82 285.59 85.82 313.88 163.5 391.57 163.51 391.57 194.39 422.45 197.03 425.29 199.67 422.45 230.56 391.56 308.24 313.88"/>
          <polygon class="cls-5" points="228.89 127.25 186.45 173.99 186.45 270.8 228.89 224.05 228.89 127.25"/>
          <polygon class="cls-4" points="228.89 224.14 186.45 270.88 186.45 352.01 228.89 305.27 228.89 224.14"/>
          <polygon class="cls-3" points="186.56 173.66 165.06 148.41 165.06 294.12 186.56 270.9 186.56 173.66"/>
        </g>
        <g>
          <g>
            <polygon class="cls-2" points="1041.17 249.6 979.07 304.12 798.61 304.12 798.61 249.6 1041.17 249.6"/>
            <polygon class="cls-2" points="980.39 352.7 1041.17 407.23 798.61 407.23 798.61 352.7 980.39 352.7"/>
            <polygon class="cls-2" points="1041.17 146.49 979.07 201.02 798.61 201.02 798.61 146.49 1041.17 146.49"/>
          </g>
          <g>
            <polygon class="cls-2" points="1681.85 149.36 1421.27 409.94 1498.38 409.94 1758.96 149.36 1681.85 149.36"/>
            <g>
              <polygon class="cls-2" points="1577.37 228.36 1498.38 149.36 1421.27 149.36 1538.82 266.91 1577.37 228.36"/>
              <polygon class="cls-2" points="1602.49 330.58 1681.85 409.94 1758.96 409.94 1641.04 292.02 1602.49 330.58"/>
            </g>
          </g>
          <polygon class="cls-2" points="1302.79 146.49 1300.73 146.49 1223.62 146.49 1136.41 146.49 1136.41 201.02 1190.94 201.02 1190.94 201.01 1278.14 201.01 1319.07 241.93 1319.07 312.59 1278.96 352.7 1223.5 352.7 1223.5 352.7 1136.41 352.7 1136.41 407.22 1224.43 407.22 1301.54 407.22 1303.16 407.22 1373.59 336.79 1373.59 335.17 1373.59 258.07 1373.59 219.35 1373.59 217.29 1302.79 146.49"/>
          <g>
            <path class="cls-2" d="M529.8,308.06h131.35l-.39.37v44.28h-54.92s-151.54,0-151.54,0h-.05v54.52h57.24c.14,0,.28.02.42.02h203.39v-150.11h-125.89l-59.62,50.92Z"/>
            <path class="cls-2" d="M605.84,201.02h37.87l71.6-54.52h-54.13c-.24,0-.48-.04-.73-.04h-173.77c-.36,0-.73,0-1.09.05h-31.33v54.51h151.59Z"/>
          </g>
        </g>
      </g>
    </g>
  </g>
</svg>